<svg width="161" height="24" viewBox="0 0 161 24" fill="none" xmlns="http://www.w3.org/2000/svg">
<path d="M17.6896 10.9425C17.4084 10.1613 17.0021 9.41125 16.5334 8.755C16.0646 8.13 15.4709 7.6925 14.9396 7.1925C14.7521 7.03625 14.5959 6.8175 14.5021 6.59875C14.4709 6.47375 14.3459 6.4425 14.2209 6.47375C14.1584 6.505 14.1271 6.53625 14.0959 6.5675C13.9709 6.8175 13.9084 7.09875 13.8459 7.38C13.7834 7.6925 13.7209 7.97375 13.7521 8.28625V8.41125C13.7834 8.63 13.5021 8.755 13.3771 8.5675C13.2521 8.38 13.1584 8.1925 13.0646 7.97375C12.9084 7.4425 12.9396 6.91125 13.0959 6.38C13.2521 5.84875 13.2834 5.22375 13.3146 4.6925C13.3459 4.38 13.3146 4.03625 13.2521 3.72375C13.1896 3.41125 13.0959 3.09875 12.9396 2.78625C12.6584 2.1925 12.2521 1.6925 11.7834 1.255C11.5646 1.03625 11.3146 0.84875 11.0334 0.66125C10.5334 0.3175 10.0959 0.0987499 9.47086 0.00499992C9.34586 0.00499992 9.22086 -0.0262498 9.12711 0.0675002C10.0021 0.755 10.1584 2.0675 9.47086 2.9425C9.31461 3.13 9.15836 3.28625 9.00211 3.47375C8.78336 3.755 8.65836 4.0675 8.56461 4.41125C8.53336 4.63 8.22086 4.66125 8.15836 4.4425C8.03336 4.09875 8.03336 3.755 8.12711 3.41125C8.22086 3.0675 8.47086 2.755 8.56461 2.41125C8.62711 2.1925 8.65836 1.9425 8.62711 1.72375C8.59586 1.59875 8.50211 1.53625 8.37711 1.53625C8.31461 1.53625 8.28336 1.5675 8.25211 1.59875C8.09586 1.78625 7.93961 1.9425 7.75211 2.13C7.47086 2.38 7.12711 2.53625 6.87711 2.78625C6.37711 3.255 6.06461 3.91125 5.81461 4.5675V4.59875C5.50211 5.72375 5.65836 6.9425 5.75211 7.5675C5.78336 7.6925 5.68961 7.78625 5.56461 7.8175C5.50211 7.8175 5.47086 7.8175 5.40836 7.78625C5.03336 7.53625 4.72086 7.1925 4.43961 6.84875C4.37711 6.755 4.25211 6.72375 4.15836 6.8175C4.12711 6.8175 4.12711 6.84875 4.09586 6.88C3.87711 7.22375 3.50211 7.755 3.25211 8.0675C1.31461 10.3488 0.689613 13.5363 1.65836 16.4425C2.22086 18.0675 3.22086 19.4737 4.59586 20.4737C5.81461 21.38 7.37711 21.5987 8.31461 22.8175C8.43961 22.9737 8.62711 23.255 8.72086 23.4425V19.4113L6.43961 18.63C6.12711 18.4738 5.93961 18.1613 5.87711 17.8175L5.15836 10.8175C5.15836 10.6925 5.25211 10.5675 5.37711 10.5362H14.0021C14.1271 10.5362 14.2209 10.6613 14.2209 10.7863V10.8175L13.4709 17.8175C13.4396 18.1613 13.2209 18.4738 12.9084 18.63L10.6271 19.4113V22.2862L10.8146 22.1925C11.4084 21.9112 12.0334 21.6925 12.6584 21.4425C13.5021 21.0987 14.4084 20.6612 15.0959 20.0987C15.5646 19.7237 16.0021 19.2863 16.4396 18.88L16.4709 18.8487C17.3146 17.755 17.8459 16.4738 18.0646 15.0988C18.2834 13.6925 18.1584 12.255 17.6896 10.9425ZM9.31461 12.3488H10.0959V17.0987H9.31461V12.3488ZM7.12711 12.4425C7.09586 12.4738 7.06461 12.5363 7.06461 12.5988L7.31461 16.4425C7.31461 16.5363 7.37711 16.63 7.47086 16.6613L8.09586 16.9425L7.78336 12.3488H7.28336C7.18961 12.3488 7.15836 12.38 7.12711 12.4425ZM12.0959 12.3488H11.5959L11.2834 16.9425L11.9084 16.6613C12.0021 16.63 12.0646 16.5363 12.0646 16.4425L12.3146 12.5988C12.3146 12.5363 12.3146 12.4738 12.2521 12.4425C12.2209 12.38 12.1584 12.3488 12.0959 12.3488Z" fill="#E86412"/>
<path d="M35.3765 10.8789C36.3765 9.87891 36.5952 8.72266 36.5952 7.03516C36.5952 4.91016 35.2515 1.44141 30.1577 1.44141H21.8452C21.2827 1.44141 20.9077 1.81641 20.9077 2.37891V21.0664C20.9077 21.7539 21.0952 22.0039 21.8452 22.0039H30.5952C35.3765 22.0039 37.5015 18.3789 37.5015 16.0977C37.5015 13.5352 36.6577 12.1602 35.3765 10.8789ZM31.064 7.59766C31.064 8.62891 30.4077 9.53516 29.2827 9.53516H26.5015V5.91016H29.2827C30.4077 5.91016 31.064 6.53516 31.064 7.59766ZM29.814 17.6914H26.4702V13.3477H29.814C30.9702 13.3477 31.6265 14.3789 31.6265 15.5039C31.6265 16.6289 30.9702 17.6914 29.814 17.6914ZM54.5015 10.8789C55.5015 9.87891 55.7202 8.72266 55.7202 7.03516C55.7202 4.91016 54.3765 1.44141 49.2827 1.44141H40.9702C40.4077 1.44141 40.0327 1.81641 40.0327 2.37891V21.0664C40.0327 21.7539 40.2202 22.0039 40.9702 22.0039H49.7202C54.5015 22.0039 56.6265 18.3789 56.6265 16.0977C56.6265 13.5352 55.7827 12.1602 54.5015 10.8789ZM50.189 7.59766C50.189 8.62891 49.5327 9.53516 48.4077 9.53516H45.6265V5.91016H48.4077C49.5327 5.91016 50.189 6.53516 50.189 7.59766ZM48.939 17.6914H45.5952V13.3477H48.939C50.0952 13.3477 50.7515 14.3789 50.7515 15.5039C50.7515 16.6289 50.0952 17.6914 48.939 17.6914ZM80.3765 20.2539L77.4702 23.1602C77.1265 23.5039 76.7515 23.5039 76.4077 23.1602L73.9077 20.6602C72.7515 21.4414 70.564 21.9727 68.7515 21.9727C63.1265 21.9727 58.6265 17.3164 58.6265 11.6914C58.6265 6.06641 63.1265 1.41016 68.7515 1.41016C75.0015 1.41016 79.189 6.06641 79.189 11.6914C79.189 13.4102 78.5952 15.6289 77.7515 16.7227L80.3765 19.1602C80.689 19.4727 80.689 19.9414 80.3765 20.2539ZM74.064 11.6602C74.064 8.81641 71.7515 6.50391 68.9077 6.50391C66.064 6.50391 63.7515 8.78516 63.7515 11.6602C63.7515 14.5352 66.064 16.8164 68.9077 16.8164C71.7515 16.8164 74.064 14.5039 74.064 11.6602ZM98.9077 13.4414V19.4727C98.9077 19.8789 98.8452 19.9727 98.5952 20.2539C98.064 20.8477 95.064 22.1289 92.3765 22.1289C86.6577 22.1289 81.939 17.7852 81.939 11.8164C81.939 5.91016 86.5327 1.59766 92.3452 1.50391C94.7827 1.50391 97.1265 2.75391 97.689 3.16016C98.3765 3.66016 98.3765 3.94141 98.064 4.41016L96.2202 7.34766C95.8765 7.84766 95.3765 7.84766 94.9702 7.56641C94.4077 7.16016 93.689 6.59766 91.939 6.59766C89.2827 6.59766 87.189 8.72266 87.189 11.8477C87.189 14.5039 88.814 16.7852 92.189 16.7852C93.7515 16.7852 93.7515 16.5977 93.7515 16.5977V13.1289C93.7515 12.7852 93.9077 12.5039 94.3765 12.5039H97.9702C98.7202 12.5039 98.9077 12.7539 98.9077 13.4414ZM118.908 2.12891V13.6914C118.908 18.9102 116.283 21.9727 110.158 21.9727C105.033 21.9727 101.564 19.0977 101.564 14.3164V2.12891C101.564 1.84766 101.814 1.50391 102.189 1.50391H106.564C106.876 1.50391 107.189 1.75391 107.189 2.12891V13.4102C107.189 15.6602 108.314 17.1289 110.158 17.1289C111.97 17.1289 113.283 15.9727 113.283 13.7227V2.12891C113.283 1.78516 113.501 1.50391 113.908 1.50391H118.283C118.595 1.50391 118.908 1.78516 118.908 2.12891ZM134.626 1.50391H139.595C140.314 1.50391 139.908 2.03516 139.908 2.03516L133.345 13.5352V21.6289C133.345 21.8164 133.22 21.9414 133.033 21.9414H128.095C127.908 21.9414 127.783 21.8164 127.783 21.6289V13.4414L121.251 1.94141C121.251 1.94141 120.939 1.47266 121.564 1.47266H126.595C127.251 1.47266 127.439 2.09766 127.439 2.09766L130.439 8.75391L133.72 2.09766C133.689 2.12891 134.001 1.50391 134.626 1.50391ZM155.876 15.0977C155.876 19.0977 152.689 21.9414 148.126 21.9414C143.345 21.9414 140.501 18.2539 140.501 18.2539C140.283 18.0352 140.158 17.5352 140.501 17.1914L142.908 14.9414C143.189 14.6602 143.626 14.5977 143.97 14.9414C143.97 14.9414 146.22 17.2227 148.126 17.2227C149.72 17.2227 150.408 16.3477 150.408 15.5664C150.408 14.8477 149.939 14.1914 147.845 13.5664C143.158 12.1602 141.095 9.87891 141.095 7.03516C141.095 3.44141 144.376 1.41016 148.251 1.41016C151.751 1.41016 154.033 3.37891 154.97 4.16016C154.97 4.16016 155.533 4.59766 155.126 5.00391L152.72 7.62891C152.501 7.84766 152.064 8.00391 151.658 7.62891C151.001 7.03516 150.001 5.97266 148.658 5.97266C147.283 5.97266 146.439 6.37891 146.439 7.19141C146.439 8.31641 147.251 8.53516 149.845 9.34766C151.064 9.75391 155.876 11.2227 155.876 15.0977ZM157.939 4.22266L157.658 3.53516H157.376V4.22266H156.814V2.19141H157.751C158.283 2.19141 158.47 2.47266 158.47 2.84766C158.47 3.16016 158.345 3.31641 158.158 3.44141L158.501 4.22266H157.939ZM157.908 2.84766C157.908 2.69141 157.783 2.59766 157.658 2.59766H157.345V3.12891H157.658C157.814 3.12891 157.908 2.97266 157.908 2.84766ZM157.595 1.41016C156.564 1.41016 155.72 2.22266 155.72 3.22266C155.72 4.25391 156.564 5.06641 157.595 5.06641C158.658 5.06641 159.47 4.25391 159.47 3.22266C159.47 2.22266 158.658 1.41016 157.595 1.41016Z" fill="#333333"/>
</svg>
