<svg xmlns="http://www.w3.org/2000/svg" width="187.102" height="49.036" viewBox="0 0 49.504 12.974"><path d="m21 175.82 1.512-3.408c.246.02.419.027.698.027.2 0 .347 0 .453-.013q.01-.002.1-.014v.16l-.246.093c-.346.127-.38.18-.38.6v2.762c0 .419.073.512.506.659l.193.06-.007.16c-.2-.02-.386-.027-1.011-.027-.493 0-.68.007-.932.026v-.16l.266-.113c.313-.133.36-.213.36-.599v-2.769l-1.631 3.674h-.087l-1.59-3.674v2.763c0 .419.033.472.42.632l.205.087v.16c-.186-.02-.38-.027-.925-.027-.373 0-.52.007-.739.026l-.006-.16.193-.06c.425-.14.505-.246.505-.658v-2.763c0-.406-.053-.479-.445-.625l-.18-.067v-.16c.26.027.36.027.612.027.24 0 .36 0 .666-.027zM26.406 174.762c-.013-.666-.22-.958-.672-.958a.82.82 0 0 0-.666.34c-.126.172-.166.299-.193.618zm.692.233h-2.223l-.006.047c0 .585.086.891.319 1.178a.99.99 0 0 0 .799.372c.28 0 .505-.053 1.011-.232l.074.192c-.506.267-.926.387-1.392.387-.885 0-1.43-.593-1.43-1.551 0-1.079.638-1.817 1.59-1.817.746 0 1.258.519 1.258 1.277zM30.12 173.95a1.3 1.3 0 0 0-.659-.173c-.705 0-1.151.592-1.151 1.537 0 .806.386 1.305 1.012 1.305.212 0 .399-.04.712-.153l.086-.033zm0 3.028v-.366c-.452.246-.719.326-1.098.326-.825 0-1.371-.612-1.371-1.537 0-1.125.705-1.857 1.784-1.857.28 0 .472.04.685.14v-.912c0-.326-.086-.413-.466-.493l-.266-.053v-.133c.393-.073.972-.22 1.325-.34v4.34c0 .3.053.353.479.44l.18.033v.12l-.067.013a10 10 0 0 0-1.085.253zM31.785 175.634h.16c.179.48.292.692.432.812.133.12.406.2.666.2.519 0 .871-.307.871-.753 0-.292-.12-.445-.572-.752l-.612-.412c-.48-.326-.593-.426-.692-.66a1.1 1.1 0 0 1-.107-.492c0-.719.52-1.191 1.311-1.191.133 0 .28.007.42.033q.02.002.3.053c.132.02.219.034.299.034h.093c0 .212.02.665.033.918l.007.093h-.147l-.04-.086c-.299-.646-.466-.786-.958-.786-.48 0-.799.286-.799.713 0 .339.08.446.586.778l.705.46c.56.372.766.665.766 1.084 0 .713-.606 1.225-1.445 1.225q-.23 0-.452-.04l-.446-.093a1.5 1.5 0 0 0-.32-.027h-.013v-.066c0-.253-.026-.76-.046-1.045M35.465 173.863h-.486v-.133c.266-.12.44-.233.566-.372.106-.114.193-.274.312-.56l.027-.066h.173v.872h1.152v.26h-1.152v2.103c0 .459.167.678.526.678.186 0 .353-.033.626-.133l.066.16c-.439.18-.792.266-1.078.266-.48 0-.732-.266-.732-.759zM39.548 175.274c-.393.067-.679.14-.872.213a.56.56 0 0 0-.386.546c0 .313.227.526.553.526.206 0 .472-.073.705-.193zm0-.186v-.958c0-.267-.126-.386-.419-.386-.26 0-.346.04-.433.2-.18.339-.286.439-.479.439-.18 0-.306-.12-.306-.3 0-.32.5-.54 1.218-.54.679 0 1.011.26 1.011.786v1.698c0 .273.154.445.393.445.08 0 .14-.013.266-.073l.074.107c-.446.32-.673.432-.872.432-.213 0-.333-.133-.393-.432-.5.32-.812.432-1.151.432-.48 0-.826-.339-.826-.805 0-.333.167-.58.48-.712.3-.126.559-.186 1.337-.32zM42.357 173.51v.453c.42-.273.74-.392 1.072-.392.326 0 .492.133.492.379 0 .213-.133.346-.339.346-.16 0-.22-.033-.346-.22-.08-.12-.127-.146-.246-.146-.18 0-.393.066-.6.186v2.017c0 .333.067.413.393.5l.447.119v.153c-.22-.02-.46-.026-1.106-.026-.612 0-.818.007-1.018.026v-.153l.313-.107c.313-.106.38-.2.38-.479v-1.697c0-.366-.067-.446-.44-.506l-.253-.04v-.126a19 19 0 0 0 1.251-.286M47.21 174.702v1.311c0 .42.033.466.506.66l.193.073-.007.16c-.24-.02-.472-.027-1.071-.027-.486 0-.686.007-.939.026l-.007-.16.194-.066c.426-.147.505-.253.505-.666v-2.729c0-.406-.086-.512-.505-.652l-.194-.06.007-.16c.24.02.513.027 1.052.027.5 0 .732-.007.958-.027l.007.16-.193.06c-.42.133-.506.246-.506.652v1.158h2.196v-1.158c0-.406-.086-.519-.505-.652l-.193-.06v-.16c.233.02.499.027 1.058.027.486 0 .725-.007.958-.027v.16l-.186.06c-.426.14-.506.246-.506.652v2.73c0 .419.027.459.506.658l.186.074v.16c-.246-.02-.479-.027-1.091-.027-.453 0-.646.007-.925.026v-.16l.193-.073c.466-.193.505-.24.505-.659v-1.311zM53.294 174.762c-.013-.666-.22-.958-.672-.958a.82.82 0 0 0-.666.34c-.126.172-.166.299-.193.618zm.692.233h-2.223l-.006.047c0 .585.086.891.32 1.178a.99.99 0 0 0 .798.372c.28 0 .506-.053 1.012-.232l.073.192c-.506.267-.925.387-1.391.387-.886 0-1.431-.593-1.431-1.551 0-1.079.639-1.817 1.59-1.817.746 0 1.258.519 1.258 1.277zM56.383 175.274c-.393.067-.68.14-.872.213a.56.56 0 0 0-.386.546c0 .313.226.526.552.526.207 0 .473-.073.706-.193zm0-.186v-.958c0-.267-.127-.386-.42-.386-.26 0-.346.04-.432.2-.18.339-.286.439-.48.439-.18 0-.305-.12-.305-.3 0-.32.499-.54 1.218-.54.678 0 1.011.26 1.011.786v1.698c0 .273.153.445.393.445.08 0 .14-.013.266-.073l.073.107c-.445.32-.672.432-.872.432-.212 0-.332-.133-.392-.432-.5.32-.812.432-1.152.432-.479 0-.825-.339-.825-.805 0-.333.166-.58.48-.712.299-.126.558-.186 1.337-.32zM59.225 171.767v4.34c0 .379.073.465.453.585l.213.06v.153c-.306-.02-.473-.027-.952-.027-.579 0-.752.007-.998.027v-.153l.306-.113c.3-.113.386-.233.386-.533v-3.32c0-.327-.093-.42-.46-.494l-.272-.053v-.12l.066-.013.586-.14c.266-.06.38-.093.672-.2M60.717 173.863h-.486v-.133c.266-.12.439-.233.565-.372.107-.114.193-.274.313-.56l.027-.066h.173v.872h1.151v.26H61.31v2.103c0 .459.166.678.526.678.186 0 .352-.033.625-.133l.067.16c-.44.18-.792.266-1.078.266-.48 0-.732-.266-.732-.759zM64.197 174.023v2.077c0 .36.04.426.333.552l.226.1v.153c-.253-.02-.46-.027-.965-.027-.433 0-.613.007-.879.027v-.153l.313-.126c.306-.12.38-.214.38-.493v-3.354c0-.327-.087-.42-.46-.493l-.273-.053v-.127l.087-.02c.625-.133.872-.2 1.238-.326v2.09a3.1 3.1 0 0 1 1.291-.306c.626 0 .938.366.938 1.111v1.438c0 .213.02.326.08.386.054.053.127.093.38.193l.2.08v.153c-.247-.02-.467-.027-.912-.027-.52 0-.766.007-.965.027v-.153l.24-.093c.352-.147.385-.193.385-.566v-1.231c0-.7-.266-.999-.872-.999-.246 0-.479.047-.765.16" style="fill:#061f5c;fill-opacity:1;fill-rule:nonzero;stroke:none;stroke-width:.35277778" transform="translate(-17.714 -164.137)"/><path d="M17.846 164.269h26.6v5.766h-26.6Z" style="fill:#fff;fill-opacity:1;fill-rule:evenodd;stroke:none;stroke-width:.35277778" transform="translate(-17.714 -164.137)"/><path d="M44.167 169.756H31.146v-5.209h13.02z" style="fill:#fcce01;fill-opacity:1;fill-rule:evenodd;stroke:none;stroke-width:.35277778" transform="translate(-17.714 -164.137)"/><path d="M31.145 169.756h-13.02v-5.209h13.02z" style="fill:#061f5c;fill-opacity:1;fill-rule:evenodd;stroke:none;stroke-width:.35277778" transform="translate(-17.714 -164.137)"/><path d="M18.125 166.716c2.43.59 4.966.902 7.577.902 4.905 0 9.552-1.102 13.71-3.07h-.925a29 29 0 0 1-11.65 2.425c-3.035 0-5.961-.465-8.712-1.326z" style="fill:#fff;fill-opacity:1;fill-rule:nonzero;stroke:none;stroke-width:.35277778" transform="translate(-17.714 -164.137)"/><path d="M18.125 168.46a35.5 35.5 0 0 0 6.11.53 35.2 35.2 0 0 0 17.17-4.443h-.862a33.5 33.5 0 0 1-15.503 3.776c-2.371 0-4.683-.249-6.915-.715z" style="fill:#fff;fill-opacity:1;fill-rule:evenodd;stroke:none;stroke-width:.35277778" transform="translate(-17.714 -164.137)"/></svg>