<svg width="146" height="24" viewBox="0 0 146 24" fill="none" xmlns="http://www.w3.org/2000/svg">
<g clip-path="url(#clip0_305_79284)">
<path d="M27.0717 19.3927C24.5277 21.9367 20.3997 21.9367 17.9037 19.3927L15.0717 16.5607L11.3757 12.8647C10.7037 12.1927 9.59974 11.4727 8.25574 11.1847L15.7437 3.64867C17.0397 2.35267 19.1517 2.35267 20.4477 3.60067L27.0717 10.2247C28.3197 11.4727 28.9917 13.1047 28.9917 14.8327C28.9917 16.5127 28.3197 18.1447 27.0717 19.3927ZM28.6077 8.64067L21.9837 2.01667C19.8237 -0.0473268 16.3197 -0.0473266 14.2077 2.11267L3.74374 12.5767L2.25574 14.0647C0.0957422 16.2247 0.0957422 19.7287 2.25574 21.9367C3.31174 22.9927 4.70374 23.5687 6.19174 23.5687C7.67974 23.5687 9.07174 22.9927 10.1277 21.9367L12.1437 19.9207C12.3357 19.7287 12.4797 19.4407 12.4797 19.1527C12.4797 18.5287 11.9997 18.0487 11.3757 18.0487C11.0397 18.0487 10.7517 18.1927 10.5597 18.4327L8.54374 20.4487C7.91974 21.0727 7.05574 21.4567 6.14374 21.4567C5.23174 21.4567 4.41574 21.1207 3.74374 20.4487C2.44774 19.1527 2.44774 16.9927 3.74374 15.6967L5.18374 14.2567C7.29574 12.2407 9.50374 14.3047 9.74374 14.4967L12.8637 17.6167L14.2077 18.9607L16.2717 21.0247C17.9517 22.7047 20.1597 23.5687 22.4157 23.5687C24.6237 23.5687 26.8797 22.7047 28.5597 21.0247C30.1917 19.3927 31.1037 17.1847 31.1037 14.8807C31.1517 12.4807 30.2397 10.2727 28.6077 8.64067Z" fill="#007499"/>
<path d="M44.1115 12.433H48.0475C51.4075 12.433 51.3595 7.53702 48.0475 7.53702H44.1115V12.433ZM48.0475 14.833H44.1115V18.913H41.5195V5.04102C43.6795 5.04102 45.8875 5.04102 48.0475 5.04102C54.8155 5.04102 54.8155 14.833 48.0475 14.833Z" fill="#007499"/>
<path d="M64.6073 18.913H54.2393V5.04102H64.6073V7.58502H56.8313V10.753H64.3673V13.201H56.8313V16.321H64.6073V18.913Z" fill="#007499"/>
<path d="M72.8636 7.96819L70.2716 13.8722H75.4076L72.8636 7.96819ZM76.4636 16.2722H69.2156L68.0156 18.8642H65.1836L71.3756 4.99219H74.2076L80.3996 18.8642H77.5676L76.4636 16.2722Z" fill="#007499"/>
<path d="M92.3517 5.13702L86.2077 11.761L92.8797 18.721V18.913H89.6637L83.8557 12.769V18.913H81.2637V5.04102H83.8557V10.897L89.1357 5.04102H92.3517V5.13702Z" fill="#007499"/>
<path d="M106.848 7.92019L104.256 13.8242H109.44L106.848 7.92019ZM110.496 16.2722H103.248L102.048 18.8642H99.2158L105.408 4.99219H108.24L114.432 18.8642H111.6L110.496 16.2722Z" fill="#007499"/>
<path d="M126.577 17.136C125.137 18.528 123.313 19.2 121.297 19.2C116.161 19.2 113.953 15.648 113.953 12.048C113.953 8.44795 116.305 4.75195 121.297 4.75195C123.169 4.75195 124.945 5.47195 126.385 6.86395L124.657 8.54395C123.745 7.63195 122.497 7.24795 121.297 7.24795C117.937 7.24795 116.497 9.74395 116.545 12.048C116.545 14.352 117.889 16.752 121.297 16.752C122.497 16.752 123.889 16.272 124.801 15.36L126.577 17.136Z" fill="#007499"/>
<path d="M127.247 4.99219V18.8642H137.615V16.2722H129.839V13.1522H137.327V10.7522H129.839V7.53619H137.615V4.99219H127.247Z" fill="#007499"/>
<path d="M141.647 3.23183V1.72229H142.412C142.474 1.72229 142.54 1.74001 142.613 1.77547C142.685 1.80956 142.746 1.86274 142.797 1.93501C142.849 2.00592 142.875 2.09592 142.875 2.20501C142.875 2.31547 142.848 2.40956 142.795 2.48729C142.742 2.56365 142.677 2.62161 142.6 2.66115C142.525 2.7007 142.455 2.72047 142.388 2.72047H141.835V2.47501H142.285C142.33 2.47501 142.379 2.45251 142.431 2.40751C142.484 2.36251 142.51 2.29501 142.51 2.20501C142.51 2.11229 142.484 2.04956 142.431 2.01683C142.379 1.98411 142.333 1.96774 142.294 1.96774H141.979V3.23183H141.647ZM142.56 2.52001L142.936 3.23183H142.572L142.204 2.52001H142.56ZM142.22 4.13183C141.994 4.13183 141.782 4.08956 141.584 4.00501C141.386 3.92047 141.212 3.8032 141.062 3.6532C140.912 3.5032 140.795 3.32933 140.71 3.13161C140.626 2.93388 140.584 2.72183 140.584 2.49547C140.584 2.26911 140.626 2.05706 140.71 1.85933C140.795 1.66161 140.912 1.48774 141.062 1.33774C141.212 1.18774 141.386 1.07047 141.584 0.985923C141.782 0.901378 141.994 0.859105 142.22 0.859105C142.446 0.859105 142.658 0.901378 142.856 0.985923C143.054 1.07047 143.228 1.18774 143.378 1.33774C143.528 1.48774 143.645 1.66161 143.73 1.85933C143.814 2.05706 143.856 2.26911 143.856 2.49547C143.856 2.72183 143.814 2.93388 143.73 3.13161C143.645 3.32933 143.528 3.5032 143.378 3.6532C143.228 3.8032 143.054 3.92047 142.856 4.00501C142.658 4.08956 142.446 4.13183 142.22 4.13183ZM142.22 3.73911C142.449 3.73911 142.658 3.6832 142.846 3.57138C143.034 3.45956 143.184 3.30956 143.296 3.12138C143.408 2.9332 143.464 2.72456 143.464 2.49547C143.464 2.26638 143.408 2.05774 143.296 1.86956C143.184 1.68138 143.034 1.53138 142.846 1.41956C142.658 1.30774 142.449 1.25183 142.22 1.25183C141.991 1.25183 141.782 1.30774 141.594 1.41956C141.406 1.53138 141.256 1.68138 141.144 1.86956C141.032 2.05774 140.976 2.26638 140.976 2.49547C140.976 2.72456 141.032 2.9332 141.144 3.12138C141.256 3.30956 141.406 3.45956 141.594 3.57138C141.782 3.6832 141.991 3.73911 142.22 3.73911Z" fill="#007499"/>
</g>
<defs>
<clipPath id="clip0_305_79284">
<rect width="145.296" height="24" fill="white"/>
</clipPath>
</defs>
</svg>
